<svg width="209" height="101" viewBox="0 0 209 101" version="1.1" xmlns="http://www.w3.org/2000/svg" xmlns:xlink="http://www.w3.org/1999/xlink">
<title>Group</title>
<desc>Created using Figma</desc>
<g id="Canvas" transform="translate(571 -26637)">
<g id="Group">
<g id="Mask Group">
<g id="Group">
<g id="XMLID 2">
<use xlink:href="#path0_fill" transform="translate(-530.004 26649)" fill="#F2F2F2"/>
</g>
<g id="XMLID 3">
<use xlink:href="#path1_fill" transform="translate(-522.551 26649)" fill="#F2F2F2"/>
</g>
<g id="XMLID 4">
<use xlink:href="#path2_fill" transform="translate(-515.097 26649)" fill="#F2F2F2"/>
</g>
<g id="XMLID 5">
<use xlink:href="#path3_fill" transform="translate(-512.933 26649)" fill="#F2F2F2"/>
</g>
<g id="XMLID 8">
<use xlink:href="#path4_fill" transform="translate(-496.652 26649)" fill="#F2F2F2"/>
</g>
<g id="XMLID 12">
<use xlink:href="#path5_fill" transform="translate(-492.707 26649)" fill="#F2F2F2"/>
</g>
<g id="XMLID 11">
<use xlink:href="#path6_fill" transform="translate(-478.53 26649)" fill="#F2F2F2"/>
</g>
<g id="XMLID 10">
<use xlink:href="#path4_fill" transform="translate(-473.414 26649)" fill="#F2F2F2"/>
</g>
<g id="XMLID 9">
<use xlink:href="#path7_fill" transform="translate(-484.083 26649)" fill="#F2F2F2"/>
</g>
<g id="XMLID 23">
<use xlink:href="#path8_fill" transform="translate(-470.959 26649)" fill="#F2F2F2"/>
</g>
<g id="XMLID 22">
<use xlink:href="#path9_fill" transform="translate(-463.534 26649)" fill="#F2F2F2"/>
</g>
<g id="XMLID 21">
<use xlink:href="#path10_fill" transform="translate(-456.081 26649)" fill="#F2F2F2"/>
</g>
<g id="XMLID 19">
<use xlink:href="#path11_fill" transform="translate(-442.138 26649)" fill="#F2F2F2"/>
</g>
<g id="XMLID 18">
<use xlink:href="#path12_fill" transform="translate(-453.245 26649)" fill="#F2F2F2"/>
</g>
<g id="XMLID 17">
<use xlink:href="#path13_fill" transform="translate(-445.002 26649)" fill="#F2F2F2"/>
</g>
<g id="XMLID 16">
<use xlink:href="#path5_fill" transform="translate(-434.538 26649)" fill="#F2F2F2"/>
</g>
<g id="XMLID 15">
<use xlink:href="#path14_fill" transform="translate(-420.362 26649)" fill="#F2F2F2"/>
</g>
<g id="XMLID 13">
<use xlink:href="#path15_fill" transform="translate(-425.915 26649)" fill="#F2F2F2"/>
</g>
<g id="XMLID 7">
<use xlink:href="#path16_fill" transform="translate(-506.533 26649)" fill="#F2F2F2"/>
</g>
<g id="XMLID 20">
<use xlink:href="#path17_fill" transform="translate(-415.275 26649)" fill="#F2F2F2"/>
</g>
<g id="XMLID 14">
<use xlink:href="#path16_fill" transform="translate(-412.411 26649)" fill="#F2F2F2"/>
</g>
</g>
<g id="Mask Group">
<mask id="mask0_alpha" mask-type="alpha">
<g id="Group">
<g id="XMLID 2">
<use xlink:href="#path18_fill" transform="translate(-529.7 26649.6)" fill="#FFFFFF"/>
</g>
<g id="XMLID 3">
<use xlink:href="#path19_fill" transform="translate(-522.272 26649.6)" fill="#FFFFFF"/>
</g>
<g id="XMLID 4">
<use xlink:href="#path20_fill" transform="translate(-514.844 26649.7)" fill="#FFFFFF"/>
</g>
<g id="XMLID 5">
<use xlink:href="#path21_fill" transform="translate(-512.688 26649.7)" fill="#FFFFFF"/>
</g>
<g id="XMLID 8">
<use xlink:href="#path22_fill" transform="translate(-496.461 26649.7)" fill="#FFFFFF"/>
</g>
<g id="XMLID 12">
<use xlink:href="#path23_fill" transform="translate(-492.529 26649.6)" fill="#FFFFFF"/>
</g>
<g id="XMLID 11">
<use xlink:href="#path24_fill" transform="translate(-478.4 26649.6)" fill="#FFFFFF"/>
</g>
<g id="XMLID 10">
<use xlink:href="#path22_fill" transform="translate(-473.302 26649.7)" fill="#FFFFFF"/>
</g>
<g id="XMLID 9">
<use xlink:href="#path25_fill" transform="translate(-483.935 26649.7)" fill="#FFFFFF"/>
</g>
<g id="XMLID 23">
<use xlink:href="#path26_fill" transform="translate(-470.854 26649.6)" fill="#FFFFFF"/>
</g>
<g id="XMLID 22">
<use xlink:href="#path27_fill" transform="translate(-463.455 26649.6)" fill="#FFFFFF"/>
</g>
<g id="XMLID 21">
<use xlink:href="#path28_fill" transform="translate(-456.027 26649.7)" fill="#FFFFFF"/>
</g>
<g id="XMLID 19">
<use xlink:href="#path29_fill" transform="translate(-442.131 26649.6)" fill="#FFFFFF"/>
</g>
<g id="XMLID 18">
<use xlink:href="#path30_fill" transform="translate(-453.201 26649.6)" fill="#FFFFFF"/>
</g>
<g id="XMLID 17">
<use xlink:href="#path31_fill" transform="translate(-444.986 26649.7)" fill="#FFFFFF"/>
</g>
<g id="XMLID 16">
<use xlink:href="#path23_fill" transform="translate(-434.557 26649.6)" fill="#FFFFFF"/>
</g>
<g id="XMLID 15">
<use xlink:href="#path32_fill" transform="translate(-420.428 26649.6)" fill="#FFFFFF"/>
</g>
<g id="XMLID 13">
<use xlink:href="#path33_fill" transform="translate(-425.962 26649.7)" fill="#FFFFFF"/>
</g>
<g id="XMLID 7">
<use xlink:href="#path34_fill" transform="translate(-506.308 26649.6)" fill="#FFFFFF"/>
</g>
<g id="XMLID 20">
<use xlink:href="#path35_fill" transform="translate(-415.358 26649.7)" fill="#FFFFFF"/>
</g>
<g id="XMLID 14">
<use xlink:href="#path34_fill" transform="translate(-412.504 26649.6)" fill="#FFFFFF"/>
</g>
</g>
</mask>
<g id="Group" mask="url(#mask0_alpha)" filter="url(#filter0_f)">
<g id="XMLID 2">
<use xlink:href="#path36_fill" transform="translate(-530.004 26682.5)" fill="#6F6F6F"/>
</g>
<g id="XMLID 3">
<use xlink:href="#path37_fill" transform="translate(-522.551 26682.5)" fill="#6F6F6F"/>
</g>
<g id="XMLID 4">
<use xlink:href="#path38_fill" transform="translate(-515.097 26682.5)" fill="#6F6F6F"/>
</g>
<g id="XMLID 5">
<use xlink:href="#path39_fill" transform="translate(-512.934 26682.5)" fill="#6F6F6F"/>
</g>
<g id="XMLID 8">
<use xlink:href="#path40_fill" transform="translate(-496.653 26682.5)" fill="#6F6F6F"/>
</g>
<g id="XMLID 12">
<use xlink:href="#path41_fill" transform="translate(-492.707 26682.5)" fill="#6F6F6F"/>
</g>
<g id="XMLID 11">
<use xlink:href="#path42_fill" transform="translate(-478.53 26682.5)" fill="#6F6F6F"/>
</g>
<g id="XMLID 10">
<use xlink:href="#path40_fill" transform="translate(-473.415 26682.5)" fill="#6F6F6F"/>
</g>
<g id="XMLID 9">
<use xlink:href="#path43_fill" transform="translate(-484.083 26682.5)" fill="#6F6F6F"/>
</g>
<g id="XMLID 23">
<use xlink:href="#path44_fill" transform="translate(-470.959 26682.5)" fill="#6F6F6F"/>
</g>
<g id="XMLID 22">
<use xlink:href="#path45_fill" transform="translate(-463.535 26682.5)" fill="#6F6F6F"/>
</g>
<g id="XMLID 21">
<use xlink:href="#path46_fill" transform="translate(-456.081 26682.5)" fill="#6F6F6F"/>
</g>
<g id="XMLID 19">
<use xlink:href="#path47_fill" transform="translate(-442.138 26682.5)" fill="#6F6F6F"/>
</g>
<g id="XMLID 18">
<use xlink:href="#path48_fill" transform="translate(-453.246 26682.5)" fill="#6F6F6F"/>
</g>
<g id="XMLID 17">
<use xlink:href="#path49_fill" transform="translate(-445.003 26682.5)" fill="#6F6F6F"/>
</g>
<g id="XMLID 16">
<use xlink:href="#path41_fill" transform="translate(-434.538 26682.5)" fill="#6F6F6F"/>
</g>
<g id="XMLID 15">
<use xlink:href="#path50_fill" transform="translate(-420.362 26682.5)" fill="#6F6F6F"/>
</g>
<g id="XMLID 13">
<use xlink:href="#path51_fill" transform="translate(-425.915 26682.5)" fill="#6F6F6F"/>
</g>
<g id="XMLID 7">
<use xlink:href="#path52_fill" transform="translate(-506.533 26682.5)" fill="#6F6F6F"/>
</g>
<g id="XMLID 20">
<use xlink:href="#path53_fill" transform="translate(-415.275 26682.5)" fill="#6F6F6F"/>
</g>
<g id="XMLID 14">
<use xlink:href="#path52_fill" transform="translate(-412.411 26682.5)" fill="#6F6F6F"/>
</g>
</g>
<g id="Rectangle 11" mask="url(#mask0_alpha)" filter="url(#filter1_f)">
<use xlink:href="#path54_fill" transform="translate(-535.553 26688.3)" fill="#828282"/>
</g>
</g>
</g>
<g id="+">
<use xlink:href="#path55_fill" transform="translate(-407 26636)" fill="#2F80ED"/>
</g>
</g>
</g>
<defs>
<filter id="filter0_f" filterUnits="userSpaceOnUse" x="-530" y="26649" width="122" height="55" color-interpolation-filters="sRGB">
<feFlood flood-opacity="0" result="BackgroundImageFix"/>
<feBlend mode="normal" in="SourceGraphic" in2="BackgroundImageFix" result="shape"/>
<feGaussianBlur stdDeviation="20" result="effect1_foregroundBlur"/>
</filter>
<filter id="filter1_f" filterUnits="userSpaceOnUse" x="-530" y="26686" width="122" height="7" color-interpolation-filters="sRGB">
<feFlood flood-opacity="0" result="BackgroundImageFix"/>
<feBlend mode="normal" in="SourceGraphic" in2="BackgroundImageFix" result="shape"/>
<feGaussianBlur stdDeviation="1" result="effect1_foregroundBlur"/>
</filter>
<path id="path0_fill" d="M 3.68302 55L 0.730758 55C 0.321534 55 1.67583e-14 54.7376 1.66155e-14 54.4037L 1.66155e-14 0.596271C 1.68133e-14 0.262359 0.321534 1.16511e-16 0.730758 3.88059e-32L 0.730758 0L 3.68302 0L 3.68302 4.9611e-32C 4.09225 1.31737e-16 4.41378 0.262359 4.41378 0.596271L 4.41378 54.1853C 4.41378 54.3308 4.4368 54.4835 4.37902 54.6171C 4.28135 54.8429 3.99969 55 3.68302 55Z"/>
<path id="path1_fill" d="M 2.63073 55L 0.526142 55C 0.233839 55 2.07691e-16 54.8092 1.3835e-31 54.5707L 0 54.5707L 0 0.429316L 1.29987e-31 0.429316C 2.01316e-16 0.190807 0.233839 1.27103e-16 0.526142 6.35008e-32L 0.526142 0L 2.63073 0L 2.63073 7.06553e-32C 2.92303 1.34072e-16 3.15687 0.190807 3.15687 0.429316L 3.15687 54.5707C 3.15687 54.8092 2.92303 55 2.63073 55Z"/>
<path id="path2_fill" d="M 0.906142 54.9762L 0.175384 54.9762C 0.0876928 54.9762 2.53132e-16 54.9046 5.48015e-31 54.833L 0 54.833L 0 0.143104L 5.34755e-31 0.143104C 2.50051e-16 0.0715517 0.0876928 1.45574e-06 0.175384 1.45574e-06L 0.906142 1.45574e-06C 0.993833 1.45574e-06 1.08153 0.0715517 1.08153 0.143104L 1.08153 54.833C 1.08153 54.9046 0.993833 54.9762 0.906142 54.9762Z"/>
<path id="path3_fill" d="M 0.90614 54.9762L 0.175382 54.9762C 0.087691 54.9762 -1.78408e-06 54.9046 -1.78408e-06 54.833L -1.78408e-06 0.143104C -1.78408e-06 0.0715517 0.087691 1.45574e-06 0.175382 1.45574e-06L 0.90614 1.45574e-06C 0.993831 1.45574e-06 1.08152 0.0715517 1.08152 0.143104L 1.08152 54.833C 1.08152 54.9046 0.993831 54.9762 0.90614 54.9762Z"/>
<path id="path4_fill" d="M 0.906144 54.9762L 0.175386 54.9762C 0.0876945 54.9762 -7.13631e-06 54.9046 -7.13631e-06 54.833L -7.13631e-06 0.143104C -7.13631e-06 0.0715517 0.0876945 1.45574e-06 0.175386 1.45574e-06L 0.906144 1.45574e-06C 0.993835 1.45574e-06 1.08152 0.0715517 1.08152 0.143104L 1.08152 54.833C 1.08152 54.9046 0.993835 54.9762 0.906144 54.9762Z"/>
<path id="path5_fill" d="M 3.68302 55L 0.730751 55C 0.321527 55 -7.13631e-06 54.7376 -7.13631e-06 54.4037L -7.13631e-06 0.596271C -7.13631e-06 0.262359 0.321527 1.16511e-16 0.730751 3.88059e-32L 0.730751 0L 3.68302 0L 3.68302 4.9611e-32C 4.09225 1.31737e-16 4.41378 0.262359 4.41378 0.596271L 4.41378 54.4037C 4.41378 54.7376 4.09225 55 3.68302 55Z"/>
<path id="path6_fill" d="M 2.63072 55L 0.526153 55C 0.23385 55 -7.13631e-06 54.8092 -7.13631e-06 54.5707L -7.13631e-06 0.429316C -7.13631e-06 0.190807 0.23385 1.27103e-16 0.526153 6.35008e-32L 0.526153 0L 2.63072 0L 2.63072 7.0655e-32C 2.92303 1.34072e-16 3.15688 0.190807 3.15688 0.429316L 3.15688 54.2654C 3.15688 54.4687 3.1655 54.6943 3.02189 54.8383C 2.9233 54.937 2.78183 55 2.63072 55Z"/>
<path id="path7_fill" d="M 0.906144 54.9762L 0.175386 54.9762C 0.0876945 54.9762 -7.13631e-06 54.9046 -7.13631e-06 54.833L -7.13631e-06 0.143104C -7.13631e-06 0.0715517 0.0876945 1.45574e-06 0.175386 1.45574e-06L 0.906144 1.45574e-06C 0.993835 1.45574e-06 1.08152 0.0715517 1.08152 0.143104L 1.08152 54.833C 1.08152 54.9046 1.02307 54.9762 0.906144 54.9762Z"/>
<path id="path8_fill" d="M 3.68301 55L 0.730758 55C 0.321534 55 1.4279e-16 54.7376 4.75585e-32 54.4037L 0 54.4037L 0 0.596271L 9.12747e-32 0.596271C 1.97814e-16 0.262359 0.321534 1.16511e-16 0.730758 3.88059e-32L 0.730758 0L 3.68301 0L 3.68301 4.9611e-32C 4.09224 1.31737e-16 4.41377 0.262359 4.41377 0.596271L 4.41377 54.4037C 4.41377 54.7376 4.09224 55 3.68301 55Z"/>
<path id="path9_fill" d="M 2.63074 55L 0.52615 55C 0.233846 55 7.13631e-06 54.8092 7.13631e-06 54.5707L 7.13631e-06 0.429316C 7.13631e-06 0.190807 0.233846 1.27103e-16 0.52615 6.35008e-32L 0.52615 0L 2.63074 0L 2.63074 7.06553e-32C 2.92304 1.34072e-16 3.15688 0.190807 3.15688 0.429316L 3.15688 54.5707C 3.15688 54.8092 2.92304 55 2.63074 55Z"/>
<path id="path10_fill" d="M 0.90614 54.9762L 0.175382 54.9762C 0.087691 54.9762 7.13631e-06 54.9046 7.13631e-06 54.833L 7.13631e-06 0.143104C 7.13631e-06 0.0715517 0.087691 1.45574e-06 0.175382 1.45574e-06L 0.90614 1.45574e-06C 0.993831 1.45574e-06 1.08152 0.0715517 1.08152 0.143104L 1.08152 54.833C 1.08152 54.9046 1.02306 54.9762 0.90614 54.9762Z"/>
<path id="path11_fill" d="M 2.63072 55L 0.526153 55C 0.23385 55 -7.13631e-06 54.8092 -7.13631e-06 54.5707L -7.13631e-06 0.429316C -7.13631e-06 0.190807 0.23385 1.27103e-16 0.526153 6.35008e-32L 0.526153 0L 2.63072 0L 2.63072 7.0655e-32C 2.92303 1.34072e-16 3.15688 0.190807 3.15688 0.429316L 3.15688 54.5707C 3.15688 54.8092 2.8938 55 2.63072 55Z"/>
<path id="path12_fill" d="M 4.85224 55L 0.993831 55C 0.438455 55 -7.13631e-06 54.6422 -7.13631e-06 54.1891L -7.13631e-06 0.810927C -7.13631e-06 0.357761 0.438455 7.94389e-17 0.993831 1.32292e-32L 0.993831 0L 4.85224 0L 4.85224 3.67216e-32C 5.40761 1.32351e-16 5.84606 0.357761 5.84606 0.810927L 5.84606 54.1891C 5.84606 54.6422 5.40761 55 4.85224 55Z"/>
<path id="path13_fill" d="M 0.906147 54.9762L 0.175389 54.9762C 0.0876981 54.9762 -3.56816e-06 54.9046 -3.56816e-06 54.833L -3.56816e-06 0.143104C -3.56816e-06 0.0715517 0.0876981 1.45574e-06 0.175389 1.45574e-06L 0.906147 1.45574e-06C 0.993838 1.45574e-06 1.08152 0.0715517 1.08152 0.143104L 1.08152 54.833C 1.08152 54.9046 0.993838 54.9762 0.906147 54.9762Z"/>
<path id="path14_fill" d="M 2.63072 55L 0.526153 55C 0.23385 55 -7.13631e-06 54.8092 -7.13631e-06 54.5707L -7.13631e-06 0.429316C -7.13631e-06 0.190807 0.23385 1.27103e-16 0.526153 6.35008e-32L 0.526153 0L 2.63072 0L 2.63072 7.0655e-32C 2.92303 1.34072e-16 3.15688 0.190807 3.15688 0.429316L 3.15688 54.5707C 3.15688 54.8092 2.92303 55 2.63072 55Z"/>
<path id="path15_fill" d="M 0.906144 54.9762L 0.175386 54.9762C 0.0876945 54.9762 -7.13631e-06 54.9046 -7.13631e-06 54.833L -7.13631e-06 0.143104C -7.13631e-06 0.0715517 0.0876945 1.45574e-06 0.175386 1.45574e-06L 0.906144 1.45574e-06C 0.993835 1.45574e-06 1.08152 0.0715517 1.08152 0.143104L 1.08152 54.5692C 1.08152 54.7434 1.08037 54.9762 0.906144 54.9762Z"/>
<path id="path16_fill" d="M 3.68303 55L 0.730755 55C 0.32153 55 -3.56816e-06 54.7376 -3.56816e-06 54.4037L -3.56816e-06 0.596271C -3.56816e-06 0.262359 0.32153 1.16511e-16 0.730755 3.88059e-32L 0.730755 0L 3.68303 0L 3.68303 4.9611e-32C 4.09225 1.31737e-16 4.41379 0.262359 4.41379 0.596271L 4.41379 54.4037C 4.41379 54.7376 4.09225 55 3.68303 55Z"/>
<path id="path17_fill" d="M 0.906133 54.9762L 0.175375 54.9762C 0.0876838 54.9762 2.53106e-16 54.9046 5.47959e-31 54.833L 0 54.833L 0 0.143104L 5.34701e-31 0.143104C 2.50026e-16 0.0715517 0.0876838 1.45574e-06 0.175375 1.45574e-06L 0.906133 1.45574e-06C 0.993824 1.45574e-06 1.08153 0.0715517 1.08153 0.143104L 1.08153 54.833C 1.08153 54.9046 1.02305 54.9762 0.906133 54.9762Z"/>
<path id="path18_fill" d="M 3.67061 54.2009L 0.728295 54.2009C 0.32045 54.2009 1.65595e-14 53.9423 1.65595e-14 53.6133L 1.65595e-14 0.587607C 1.65595e-14 0.258547 0.32045 0 0.728295 0L 3.67061 0C 4.07845 0 4.3989 0.258547 4.3989 0.587607L 4.3989 53.6133C 4.42803 53.9423 4.07845 54.2009 3.67061 54.2009Z"/>
<path id="path19_fill" d="M 2.62186 54.2009L 0.524369 54.2009C 0.233051 54.2009 0 54.0128 0 53.7778L 0 0.423078C 0 0.188035 0.233051 0 0.524369 0L 2.62186 0C 2.91318 0 3.14623 0.188035 3.14623 0.423078L 3.14623 53.7778C 3.14623 54.0128 2.91318 54.2009 2.62186 54.2009Z"/>
<path id="path20_fill" d="M 0.903087 54.1774L 0.174793 54.1774C 0.0873972 54.1774 0 54.1068 0 54.0363L 0 0.141025C 0 0.0705121 0.0873972 1.43459e-06 0.174793 1.43459e-06L 0.903087 1.43459e-06C 0.990483 1.43459e-06 1.07788 0.0705121 1.07788 0.141025L 1.07788 54.0363C 1.07788 54.1068 0.990483 54.1774 0.903087 54.1774Z"/>
<path id="path21_fill" d="M 0.903086 54.1774L 0.174791 54.1774C 0.0873954 54.1774 -1.77806e-06 54.1068 -1.77806e-06 54.0363L -1.77806e-06 0.141025C -1.77806e-06 0.0705121 0.0873954 1.43459e-06 0.174791 1.43459e-06L 0.903086 1.43459e-06C 0.990481 1.43459e-06 1.07788 0.0705121 1.07788 0.141025L 1.07788 54.0363C 1.07788 54.1068 0.990481 54.1774 0.903086 54.1774Z"/>
<path id="path22_fill" d="M 0.903089 54.1774L 0.174794 54.1774C 0.0873989 54.1774 -7.11225e-06 54.1068 -7.11225e-06 54.0363L -7.11225e-06 0.141025C -7.11225e-06 0.0705121 0.0873989 1.43459e-06 0.174794 1.43459e-06L 0.903089 1.43459e-06C 0.990485 1.43459e-06 1.07787 0.0705121 1.07787 0.141025L 1.07787 54.0363C 1.07787 54.1068 0.990485 54.1774 0.903089 54.1774Z"/>
<path id="path23_fill" d="M 3.67061 54.2009L 0.728288 54.2009C 0.320443 54.2009 -7.11225e-06 53.9423 -7.11225e-06 53.6133L -7.11225e-06 0.587607C -7.11225e-06 0.258547 0.320443 0 0.728288 0L 3.67061 0C 4.07845 0 4.3989 0.258547 4.3989 0.587607L 4.3989 53.6133C 4.3989 53.9423 4.07845 54.2009 3.67061 54.2009Z"/>
<path id="path24_fill" d="M 2.62185 54.2009L 0.524379 54.2009C 0.233061 54.2009 -7.11225e-06 54.0128 -7.11225e-06 53.7778L -7.11225e-06 0.423078C -7.11225e-06 0.188035 0.233061 0 0.524379 0L 2.62185 0C 2.91317 0 3.14624 0.188035 3.14624 0.423078L 3.14624 53.7778C 3.11711 54.0128 2.88404 54.2009 2.62185 54.2009Z"/>
<path id="path25_fill" d="M 0.903089 54.1774L 0.174794 54.1774C 0.0873989 54.1774 -7.11225e-06 54.1068 -7.11225e-06 54.0363L -7.11225e-06 0.141025C -7.11225e-06 0.0705121 0.0873989 1.43459e-06 0.174794 1.43459e-06L 0.903089 1.43459e-06C 0.990485 1.43459e-06 1.07787 0.0705121 1.07787 0.141025L 1.07787 54.0363C 1.07787 54.1068 1.01962 54.1774 0.903089 54.1774Z"/>
<path id="path26_fill" d="M 3.6706 54.2009L 0.728295 54.2009C 0.32045 54.2009 0 53.9423 0 53.6133L 0 0.587607C 0 0.258547 0.32045 0 0.728295 0L 3.6706 0C 4.07844 0 4.39889 0.258547 4.39889 0.587607L 4.39889 53.6133C 4.39889 53.9423 4.07844 54.2009 3.6706 54.2009Z"/>
<path id="path27_fill" d="M 2.62187 54.2009L 0.524376 54.2009C 0.233058 54.2009 7.11225e-06 54.0128 7.11225e-06 53.7778L 7.11225e-06 0.423078C 7.11225e-06 0.188035 0.233058 0 0.524376 0L 2.62187 0C 2.91319 0 3.14624 0.188035 3.14624 0.423078L 3.14624 53.7778C 3.14624 54.0128 2.91319 54.2009 2.62187 54.2009Z"/>
<path id="path28_fill" d="M 0.903086 54.1774L 0.174791 54.1774C 0.0873954 54.1774 7.11225e-06 54.1068 7.11225e-06 54.0363L 7.11225e-06 0.141025C 7.11225e-06 0.0705121 0.0873954 1.43459e-06 0.174791 1.43459e-06L 0.903086 1.43459e-06C 0.990481 1.43459e-06 1.07787 0.0705121 1.07787 0.141025L 1.07787 54.0363C 1.07787 54.1068 1.01961 54.1774 0.903086 54.1774Z"/>
<path id="path29_fill" d="M 2.62185 54.2009L 0.524379 54.2009C 0.233061 54.2009 -7.11225e-06 54.0128 -7.11225e-06 53.7778L -7.11225e-06 0.423078C -7.11225e-06 0.188035 0.233061 0 0.524379 0L 2.62185 0C 2.91317 0 3.14624 0.188035 3.14624 0.423078L 3.14624 53.7778C 3.14624 54.0128 2.88404 54.2009 2.62185 54.2009Z"/>
<path id="path30_fill" d="M 4.83588 54.2009L 0.990481 54.2009C 0.436977 54.2009 -7.11225e-06 53.8483 -7.11225e-06 53.4017L -7.11225e-06 0.799144C -7.11225e-06 0.352563 0.436977 0 0.990481 0L 4.83588 0C 5.38939 0 5.82635 0.352563 5.82635 0.799144L 5.82635 53.4017C 5.82635 53.8483 5.38939 54.2009 4.83588 54.2009Z"/>
<path id="path31_fill" d="M 0.903093 54.1774L 0.174798 54.1774C 0.0874025 54.1774 -3.55613e-06 54.1068 -3.55613e-06 54.0363L -3.55613e-06 0.141025C -3.55613e-06 0.0705121 0.0874025 1.43459e-06 0.174798 1.43459e-06L 0.903093 1.43459e-06C 0.990488 1.43459e-06 1.07788 0.0705121 1.07788 0.141025L 1.07788 54.0363C 1.07788 54.1068 0.990488 54.1774 0.903093 54.1774Z"/>
<path id="path32_fill" d="M 2.62185 54.2009L 0.524379 54.2009C 0.233061 54.2009 -7.11225e-06 54.0128 -7.11225e-06 53.7778L -7.11225e-06 0.423078C -7.11225e-06 0.188035 0.233061 0 0.524379 0L 2.62185 0C 2.91317 0 3.14624 0.188035 3.14624 0.423078L 3.14624 53.7778C 3.14624 54.0128 2.91317 54.2009 2.62185 54.2009Z"/>
<path id="path33_fill" d="M 0.903089 54.1774L 0.174794 54.1774C 0.0873989 54.1774 -7.11225e-06 54.1068 -7.11225e-06 54.0363L -7.11225e-06 0.141025C -7.11225e-06 0.0705121 0.0873989 1.43459e-06 0.174794 1.43459e-06L 0.903089 1.43459e-06C 0.990485 1.43459e-06 1.07787 0.0705121 1.07787 0.141025L 1.07787 54.0363C 1.107 54.1068 1.01962 54.1774 0.903089 54.1774Z"/>
<path id="path34_fill" d="M 3.67061 54.2009L 0.728291 54.2009C 0.320446 54.2009 -3.55613e-06 53.9423 -3.55613e-06 53.6133L -3.55613e-06 0.587607C -3.55613e-06 0.258547 0.320446 0 0.728291 0L 3.67061 0C 4.07846 0 4.39891 0.258547 4.39891 0.587607L 4.39891 53.6133C 4.39891 53.9423 4.07846 54.2009 3.67061 54.2009Z"/>
<path id="path35_fill" d="M 0.903078 54.1774L 0.174784 54.1774C 0.0873883 54.1774 0 54.1068 0 54.0363L 0 0.141025C 0 0.0705121 0.0873883 1.43459e-06 0.174784 1.43459e-06L 0.903078 1.43459e-06C 0.990474 1.43459e-06 1.07788 0.0705121 1.07788 0.141025L 1.07788 54.0363C 1.07788 54.1068 1.01961 54.1774 0.903078 54.1774Z"/>
<path id="path36_fill" d="M 3.68302 14.8411L 0.730758 14.8411C 0.321534 14.8411 1.66155e-14 14.7703 1.66155e-14 14.6802L 1.66155e-14 0.160897C 1.66155e-14 0.0707946 0.321534 0 0.730758 0L 3.68302 0C 4.09225 0 4.41378 0.0707946 4.41378 0.160897L 4.41378 14.6802C 4.44301 14.7703 4.09225 14.8411 3.68302 14.8411Z"/>
<path id="path37_fill" d="M 2.63073 14.8411L 0.526142 14.8411C 0.233839 14.8411 0 14.7896 0 14.7253L 0 0.115846C 0 0.0514872 0.233839 0 0.526142 0L 2.63073 0C 2.92303 0 3.15687 0.0514872 3.15687 0.115846L 3.15687 14.7253C 3.15687 14.7896 2.92303 14.8411 2.63073 14.8411Z"/>
<path id="path38_fill" d="M 0.906142 14.8347L 0.175384 14.8347C 0.0876928 14.8347 0 14.8154 0 14.7961L 0 0.038615C 0 0.0193074 0.0876928 3.92814e-07 0.175384 3.92814e-07L 0.906142 3.92814e-07C 0.993833 3.92814e-07 1.08153 0.0193074 1.08153 0.038615L 1.08153 14.7961C 1.08153 14.8154 0.993833 14.8347 0.906142 14.8347Z"/>
<path id="path39_fill" d="M 0.90614 14.8347L 0.175382 14.8347C 0.087691 14.8347 -1.78408e-06 14.8154 -1.78408e-06 14.7961L -1.78408e-06 0.038615C -1.78408e-06 0.0193074 0.087691 3.92814e-07 0.175382 3.92814e-07L 0.90614 3.92814e-07C 0.993831 3.92814e-07 1.08152 0.0193074 1.08152 0.038615L 1.08152 14.7961C 1.08152 14.8154 0.993831 14.8347 0.90614 14.8347Z"/>
<path id="path40_fill" d="M 0.906144 14.8347L 0.175386 14.8347C 0.0876945 14.8347 -7.13631e-06 14.8154 -7.13631e-06 14.7961L -7.13631e-06 0.038615C -7.13631e-06 0.0193074 0.0876945 3.92814e-07 0.175386 3.92814e-07L 0.906144 3.92814e-07C 0.993835 3.92814e-07 1.08152 0.0193074 1.08152 0.038615L 1.08152 14.7961C 1.08152 14.8154 0.993835 14.8347 0.906144 14.8347Z"/>
<path id="path41_fill" d="M 3.68302 14.8411L 0.730751 14.8411C 0.321527 14.8411 -7.13631e-06 14.7703 -7.13631e-06 14.6802L -7.13631e-06 0.160897C -7.13631e-06 0.0707946 0.321527 0 0.730751 0L 3.68302 0C 4.09225 0 4.41378 0.0707946 4.41378 0.160897L 4.41378 14.6802C 4.41378 14.7703 4.09225 14.8411 3.68302 14.8411Z"/>
<path id="path42_fill" d="M 2.63072 14.8411L 0.526153 14.8411C 0.23385 14.8411 -7.13631e-06 14.7896 -7.13631e-06 14.7253L -7.13631e-06 0.115846C -7.13631e-06 0.0514872 0.23385 0 0.526153 0L 2.63072 0C 2.92303 0 3.15688 0.0514872 3.15688 0.115846L 3.15688 14.7253C 3.12765 14.7896 2.8938 14.8411 2.63072 14.8411Z"/>
<path id="path43_fill" d="M 0.906144 14.8347L 0.175386 14.8347C 0.0876945 14.8347 -7.13631e-06 14.8154 -7.13631e-06 14.7961L -7.13631e-06 0.038615C -7.13631e-06 0.0193074 0.0876945 3.92814e-07 0.175386 3.92814e-07L 0.906144 3.92814e-07C 0.993835 3.92814e-07 1.08152 0.0193074 1.08152 0.038615L 1.08152 14.7961C 1.08152 14.8154 1.02307 14.8347 0.906144 14.8347Z"/>
<path id="path44_fill" d="M 3.68301 14.8411L 0.730758 14.8411C 0.321534 14.8411 0 14.7703 0 14.6802L 0 0.160897C 0 0.0707946 0.321534 0 0.730758 0L 3.68301 0C 4.09224 0 4.41377 0.0707946 4.41377 0.160897L 4.41377 14.6802C 4.41377 14.7703 4.09224 14.8411 3.68301 14.8411Z"/>
<path id="path45_fill" d="M 2.63074 14.8411L 0.52615 14.8411C 0.233846 14.8411 7.13631e-06 14.7896 7.13631e-06 14.7253L 7.13631e-06 0.115846C 7.13631e-06 0.0514872 0.233846 0 0.52615 0L 2.63074 0C 2.92304 0 3.15688 0.0514872 3.15688 0.115846L 3.15688 14.7253C 3.15688 14.7896 2.92304 14.8411 2.63074 14.8411Z"/>
<path id="path46_fill" d="M 0.90614 14.8347L 0.175382 14.8347C 0.087691 14.8347 7.13631e-06 14.8154 7.13631e-06 14.7961L 7.13631e-06 0.038615C 7.13631e-06 0.0193074 0.087691 3.92814e-07 0.175382 3.92814e-07L 0.90614 3.92814e-07C 0.993831 3.92814e-07 1.08152 0.0193074 1.08152 0.038615L 1.08152 14.7961C 1.08152 14.8154 1.02306 14.8347 0.90614 14.8347Z"/>
<path id="path47_fill" d="M 2.63072 14.8411L 0.526153 14.8411C 0.23385 14.8411 -7.13631e-06 14.7896 -7.13631e-06 14.7253L -7.13631e-06 0.115846C -7.13631e-06 0.0514872 0.23385 0 0.526153 0L 2.63072 0C 2.92303 0 3.15688 0.0514872 3.15688 0.115846L 3.15688 14.7253C 3.15688 14.7896 2.8938 14.8411 2.63072 14.8411Z"/>
<path id="path48_fill" d="M 4.85224 14.8411L 0.993831 14.8411C 0.438455 14.8411 -7.13631e-06 14.7446 -7.13631e-06 14.6223L -7.13631e-06 0.218819C -7.13631e-06 0.0965377 0.438455 0 0.993831 0L 4.85224 0C 5.40761 0 5.84606 0.0965377 5.84606 0.218819L 5.84606 14.6223C 5.84606 14.7446 5.40761 14.8411 4.85224 14.8411Z"/>
<path id="path49_fill" d="M 0.906147 14.8347L 0.175389 14.8347C 0.0876981 14.8347 -3.56816e-06 14.8154 -3.56816e-06 14.7961L -3.56816e-06 0.038615C -3.56816e-06 0.0193074 0.0876981 3.92814e-07 0.175389 3.92814e-07L 0.906147 3.92814e-07C 0.993838 3.92814e-07 1.08152 0.0193074 1.08152 0.038615L 1.08152 14.7961C 1.08152 14.8154 0.993838 14.8347 0.906147 14.8347Z"/>
<path id="path50_fill" d="M 2.63072 14.8411L 0.526153 14.8411C 0.23385 14.8411 -7.13631e-06 14.7896 -7.13631e-06 14.7253L -7.13631e-06 0.115846C -7.13631e-06 0.0514872 0.23385 0 0.526153 0L 2.63072 0C 2.92303 0 3.15688 0.0514872 3.15688 0.115846L 3.15688 14.7253C 3.15688 14.7896 2.92303 14.8411 2.63072 14.8411Z"/>
<path id="path51_fill" d="M 0.906144 14.8347L 0.175386 14.8347C 0.0876945 14.8347 -7.13631e-06 14.8154 -7.13631e-06 14.7961L -7.13631e-06 0.038615C -7.13631e-06 0.0193074 0.0876945 3.92814e-07 0.175386 3.92814e-07L 0.906144 3.92814e-07C 0.993835 3.92814e-07 1.08152 0.0193074 1.08152 0.038615L 1.08152 14.7961C 1.11075 14.8154 1.02307 14.8347 0.906144 14.8347Z"/>
<path id="path52_fill" d="M 3.68303 14.8411L 0.730755 14.8411C 0.32153 14.8411 -3.56816e-06 14.7703 -3.56816e-06 14.6802L -3.56816e-06 0.160897C -3.56816e-06 0.0707946 0.32153 0 0.730755 0L 3.68303 0C 4.09225 0 4.41379 0.0707946 4.41379 0.160897L 4.41379 14.6802C 4.41379 14.7703 4.09225 14.8411 3.68303 14.8411Z"/>
<path id="path53_fill" d="M 0.906133 14.8347L 0.175375 14.8347C 0.0876838 14.8347 0 14.8154 0 14.7961L 0 0.038615C 0 0.0193074 0.0876838 3.92814e-07 0.175375 3.92814e-07L 0.906133 3.92814e-07C 0.993824 3.92814e-07 1.08153 0.0193074 1.08153 0.038615L 1.08153 14.7961C 1.08153 14.8154 1.02305 14.8347 0.906133 14.8347Z"/>
<path id="path54_fill" d="M 0 0L 137.257 0L 137.257 2.61905L 0 2.61905L 0 0Z"/>
<path id="path55_fill" d="M 6.51074 4.95996L 9.85059 4.95996L 9.85059 6.91113L 6.51074 6.91113L 6.51074 10.7168L 4.43652 10.7168L 4.43652 6.91113L 1.0791 6.91113L 1.0791 4.95996L 4.43652 4.95996L 4.43652 1.40039L 6.51074 1.40039L 6.51074 4.95996Z"/>
</defs>
</svg>
